<mxfile host="app.diagrams.net" modified="2024-03-24T08:14:21.135Z" agent="Mozilla/5.0 (Windows NT 10.0; Win64; x64) AppleWebKit/537.36 (KHTML, like Gecko) Chrome/123.0.0.0 Safari/537.36" etag="Ik4Vb-GaOsiRqbIipIrZ" version="24.1.0" type="device">
  <diagram name="Page-1" id="IODUMDfnzfg5WSkq0HOb">
    <mxGraphModel dx="1434" dy="738" grid="1" gridSize="10" guides="1" tooltips="1" connect="1" arrows="1" fold="1" page="1" pageScale="1" pageWidth="1369" pageHeight="936" math="0" shadow="0">
      <root>
        <mxCell id="0" />
        <mxCell id="1" parent="0" />
        <mxCell id="_nBaNx2a2KP-oIEA9KMs-3" value="" style="group" parent="1" vertex="1" connectable="0">
          <mxGeometry x="400" y="168" width="170" height="202" as="geometry" />
        </mxCell>
        <mxCell id="_nBaNx2a2KP-oIEA9KMs-1" value="" style="whiteSpace=wrap;html=1;aspect=fixed;" parent="_nBaNx2a2KP-oIEA9KMs-3" vertex="1">
          <mxGeometry width="170" height="170" as="geometry" />
        </mxCell>
        <mxCell id="_nBaNx2a2KP-oIEA9KMs-2" value="&lt;font style=&quot;font-size: 23px;&quot;&gt;API GETWAY&lt;br&gt;+ AUTHOR&lt;/font&gt;" style="text;html=1;align=center;verticalAlign=middle;whiteSpace=wrap;rounded=0;" parent="_nBaNx2a2KP-oIEA9KMs-3" vertex="1">
          <mxGeometry x="32.69230769230769" y="102.55384615384615" width="98.07692307692308" height="15.538461538461538" as="geometry" />
        </mxCell>
        <mxCell id="_nBaNx2a2KP-oIEA9KMs-24" style="edgeStyle=orthogonalEdgeStyle;rounded=0;orthogonalLoop=1;jettySize=auto;html=1;entryX=0;entryY=0.5;entryDx=0;entryDy=0;" parent="1" source="_nBaNx2a2KP-oIEA9KMs-9" edge="1">
          <mxGeometry relative="1" as="geometry">
            <mxPoint x="1200" y="198" as="targetPoint" />
          </mxGeometry>
        </mxCell>
        <mxCell id="9PCEL7k4kP_OmGIp3oCn-26" value="" style="edgeStyle=orthogonalEdgeStyle;rounded=0;orthogonalLoop=1;jettySize=auto;html=1;" edge="1" parent="1" source="_nBaNx2a2KP-oIEA9KMs-9" target="_nBaNx2a2KP-oIEA9KMs-33">
          <mxGeometry relative="1" as="geometry" />
        </mxCell>
        <mxCell id="_nBaNx2a2KP-oIEA9KMs-9" value="" style="rounded=1;whiteSpace=wrap;html=1;" parent="1" vertex="1">
          <mxGeometry x="770" y="50" width="310" height="60" as="geometry" />
        </mxCell>
        <mxCell id="_nBaNx2a2KP-oIEA9KMs-21" style="edgeStyle=orthogonalEdgeStyle;rounded=0;orthogonalLoop=1;jettySize=auto;html=1;exitX=0.5;exitY=0;exitDx=0;exitDy=0;entryX=0;entryY=0.5;entryDx=0;entryDy=0;" parent="1" source="_nBaNx2a2KP-oIEA9KMs-1" target="_nBaNx2a2KP-oIEA9KMs-9" edge="1">
          <mxGeometry relative="1" as="geometry" />
        </mxCell>
        <mxCell id="_nBaNx2a2KP-oIEA9KMs-31" value="&lt;div style=&quot;text-align: left; font-size: 21px;&quot;&gt;&lt;span style=&quot;font-family: &amp;quot;Times New Roman&amp;quot;; background-color: initial;&quot;&gt;&lt;font style=&quot;font-size: 21px;&quot;&gt;Spring Cloud&lt;/font&gt;&lt;/span&gt;&lt;/div&gt;&lt;font style=&quot;font-size: 21px;&quot; face=&quot;Times New Roman&quot;&gt;&lt;div style=&quot;text-align: left;&quot;&gt;&lt;span style=&quot;background-color: initial;&quot;&gt;Spring Cloud Gateway&lt;/span&gt;&lt;/div&gt;&lt;div style=&quot;text-align: left;&quot;&gt;&lt;span style=&quot;background-color: initial;&quot;&gt;Apache Kafka/ Zookeeper&lt;/span&gt;&lt;/div&gt;&lt;span style=&quot;color: rgb(31, 35, 40); background-color: rgb(255, 255, 255);&quot;&gt;&lt;div style=&quot;text-align: left;&quot;&gt;Resilience4j&amp;nbsp;&lt;/div&gt;&lt;/span&gt;&lt;/font&gt;&lt;div style=&quot;text-align: left; font-size: 21px;&quot;&gt;&lt;span style=&quot;background-color: rgb(255, 255, 255);&quot;&gt;&lt;font style=&quot;font-size: 21px;&quot; face=&quot;kiULWr-pnnUyZTE9aauR&quot; color=&quot;#1f2328&quot;&gt;Docker/ Docker compose&lt;/font&gt;&lt;br&gt;&lt;/span&gt;&lt;/div&gt;" style="text;html=1;align=center;verticalAlign=middle;whiteSpace=wrap;rounded=0;" parent="1" vertex="1">
          <mxGeometry y="580" width="360" height="149.23" as="geometry" />
        </mxCell>
        <mxCell id="_nBaNx2a2KP-oIEA9KMs-32" value="" style="sketch=0;points=[[0,0,0],[0.25,0,0],[0.5,0,0],[0.75,0,0],[1,0,0],[0,1,0],[0.25,1,0],[0.5,1,0],[0.75,1,0],[1,1,0],[0,0.25,0],[0,0.5,0],[0,0.75,0],[1,0.25,0],[1,0.5,0],[1,0.75,0]];outlineConnect=0;fontColor=#232F3E;fillColor=#8C4FFF;strokeColor=#ffffff;dashed=0;verticalLabelPosition=bottom;verticalAlign=top;align=center;html=1;fontSize=12;fontStyle=0;aspect=fixed;shape=mxgraph.aws4.resourceIcon;resIcon=mxgraph.aws4.managed_streaming_for_kafka;" parent="1" vertex="1">
          <mxGeometry x="1210" y="20" width="58" height="58" as="geometry" />
        </mxCell>
        <mxCell id="_nBaNx2a2KP-oIEA9KMs-33" value="" style="image;sketch=0;aspect=fixed;html=1;points=[];align=center;fontSize=12;image=img/lib/mscae/Azure_Database_for_PostgreSQL_servers.svg;" parent="1" vertex="1">
          <mxGeometry x="883.2" y="168" width="83.6" height="110" as="geometry" />
        </mxCell>
        <mxCell id="_nBaNx2a2KP-oIEA9KMs-15" value="POSTGRES DB" style="text;html=1;align=center;verticalAlign=middle;whiteSpace=wrap;rounded=0;" parent="1" vertex="1">
          <mxGeometry x="883.2" y="294" width="80" height="30" as="geometry" />
        </mxCell>
        <mxCell id="_nBaNx2a2KP-oIEA9KMs-39" value="Load balancer&#xa;Circuit Breaker" style="text;whiteSpace=wrap;fontSize=19;" parent="1" vertex="1">
          <mxGeometry x="530" y="80.77" width="180" height="60" as="geometry" />
        </mxCell>
        <mxCell id="_nBaNx2a2KP-oIEA9KMs-45" value="Open Service&lt;br&gt;Or 3rd Service" style="text;html=1;align=center;verticalAlign=middle;whiteSpace=wrap;rounded=0;fontSize=24;fillColor=#f5f5f5;fontColor=#333333;strokeColor=#666666;" parent="1" vertex="1">
          <mxGeometry x="1090" y="210" width="220" height="80" as="geometry" />
        </mxCell>
        <mxCell id="9PCEL7k4kP_OmGIp3oCn-1" value="" style="group" vertex="1" connectable="0" parent="1">
          <mxGeometry x="805" y="460" width="188.47" height="210" as="geometry" />
        </mxCell>
        <mxCell id="9PCEL7k4kP_OmGIp3oCn-2" value="" style="whiteSpace=wrap;html=1;aspect=fixed;" vertex="1" parent="9PCEL7k4kP_OmGIp3oCn-1">
          <mxGeometry width="170" height="170" as="geometry" />
        </mxCell>
        <mxCell id="9PCEL7k4kP_OmGIp3oCn-3" value="&lt;font style=&quot;font-size: 23px;&quot;&gt;CONFIG SERVER&lt;/font&gt;" style="text;html=1;align=center;verticalAlign=middle;whiteSpace=wrap;rounded=0;" vertex="1" parent="9PCEL7k4kP_OmGIp3oCn-1">
          <mxGeometry x="32.69230769230769" y="101.53846153846153" width="98.07692307692307" height="15.384615384615385" as="geometry" />
        </mxCell>
        <mxCell id="9PCEL7k4kP_OmGIp3oCn-23" value="file config local storage or git" style="text;html=1;align=center;verticalAlign=middle;whiteSpace=wrap;rounded=0;" vertex="1" parent="9PCEL7k4kP_OmGIp3oCn-1">
          <mxGeometry x="-5" y="180" width="193.47" height="30" as="geometry" />
        </mxCell>
        <mxCell id="9PCEL7k4kP_OmGIp3oCn-4" value="" style="group" vertex="1" connectable="0" parent="1">
          <mxGeometry x="400" y="490" width="170" height="202" as="geometry" />
        </mxCell>
        <mxCell id="9PCEL7k4kP_OmGIp3oCn-5" value="" style="whiteSpace=wrap;html=1;aspect=fixed;" vertex="1" parent="9PCEL7k4kP_OmGIp3oCn-4">
          <mxGeometry width="170" height="170" as="geometry" />
        </mxCell>
        <mxCell id="9PCEL7k4kP_OmGIp3oCn-6" value="&lt;span style=&quot;font-size: 23px;&quot;&gt;AUTHEN&lt;/span&gt;" style="text;html=1;align=center;verticalAlign=middle;whiteSpace=wrap;rounded=0;" vertex="1" parent="9PCEL7k4kP_OmGIp3oCn-4">
          <mxGeometry x="32.69230769230769" y="102.55384615384615" width="98.07692307692308" height="15.538461538461538" as="geometry" />
        </mxCell>
        <mxCell id="9PCEL7k4kP_OmGIp3oCn-8" style="edgeStyle=orthogonalEdgeStyle;rounded=0;orthogonalLoop=1;jettySize=auto;html=1;exitX=1;exitY=0.75;exitDx=0;exitDy=0;entryX=0;entryY=0.75;entryDx=0;entryDy=0;" edge="1" parent="1" source="9PCEL7k4kP_OmGIp3oCn-5" target="9PCEL7k4kP_OmGIp3oCn-2">
          <mxGeometry relative="1" as="geometry" />
        </mxCell>
        <mxCell id="9PCEL7k4kP_OmGIp3oCn-9" value="&lt;font style=&quot;font-size: 24px;&quot;&gt;USER/CLIENT&lt;/font&gt;&lt;div style=&quot;font-size: 24px;&quot;&gt;&lt;br&gt;&lt;/div&gt;" style="text;html=1;align=center;verticalAlign=middle;whiteSpace=wrap;rounded=0;" vertex="1" parent="1">
          <mxGeometry x="20" y="400" width="190" height="80" as="geometry" />
        </mxCell>
        <mxCell id="9PCEL7k4kP_OmGIp3oCn-10" style="edgeStyle=orthogonalEdgeStyle;rounded=0;orthogonalLoop=1;jettySize=auto;html=1;entryX=0.006;entryY=0.441;entryDx=0;entryDy=0;entryPerimeter=0;" edge="1" parent="1" source="9PCEL7k4kP_OmGIp3oCn-9" target="9PCEL7k4kP_OmGIp3oCn-5">
          <mxGeometry relative="1" as="geometry">
            <Array as="points">
              <mxPoint x="115" y="565" />
            </Array>
          </mxGeometry>
        </mxCell>
        <mxCell id="9PCEL7k4kP_OmGIp3oCn-12" value="&lt;b&gt;&lt;font style=&quot;font-size: 27px;&quot;&gt;1&lt;/font&gt;&lt;/b&gt;" style="ellipse;whiteSpace=wrap;html=1;" vertex="1" parent="1">
          <mxGeometry x="180" y="520" width="30" height="30" as="geometry" />
        </mxCell>
        <mxCell id="9PCEL7k4kP_OmGIp3oCn-13" style="edgeStyle=orthogonalEdgeStyle;rounded=0;orthogonalLoop=1;jettySize=auto;html=1;exitX=0;exitY=0.25;exitDx=0;exitDy=0;entryX=1;entryY=0.25;entryDx=0;entryDy=0;" edge="1" parent="1" source="9PCEL7k4kP_OmGIp3oCn-5" target="9PCEL7k4kP_OmGIp3oCn-9">
          <mxGeometry relative="1" as="geometry" />
        </mxCell>
        <mxCell id="9PCEL7k4kP_OmGIp3oCn-14" value="&lt;b&gt;&lt;font style=&quot;font-size: 27px;&quot;&gt;2&lt;/font&gt;&lt;/b&gt;" style="ellipse;whiteSpace=wrap;html=1;" vertex="1" parent="1">
          <mxGeometry x="310" y="450" width="30" height="30" as="geometry" />
        </mxCell>
        <mxCell id="9PCEL7k4kP_OmGIp3oCn-15" value="user/password" style="text;html=1;align=center;verticalAlign=middle;whiteSpace=wrap;rounded=0;" vertex="1" parent="1">
          <mxGeometry x="160" y="490" width="90" height="20" as="geometry" />
        </mxCell>
        <mxCell id="9PCEL7k4kP_OmGIp3oCn-16" value="token" style="text;html=1;align=center;verticalAlign=middle;whiteSpace=wrap;rounded=0;" vertex="1" parent="1">
          <mxGeometry x="300" y="430" width="90" height="20" as="geometry" />
        </mxCell>
        <mxCell id="9PCEL7k4kP_OmGIp3oCn-17" style="edgeStyle=orthogonalEdgeStyle;rounded=0;orthogonalLoop=1;jettySize=auto;html=1;entryX=0;entryY=0.429;entryDx=0;entryDy=0;entryPerimeter=0;" edge="1" parent="1" source="9PCEL7k4kP_OmGIp3oCn-9" target="_nBaNx2a2KP-oIEA9KMs-1">
          <mxGeometry relative="1" as="geometry">
            <Array as="points">
              <mxPoint x="115" y="241" />
            </Array>
          </mxGeometry>
        </mxCell>
        <mxCell id="9PCEL7k4kP_OmGIp3oCn-19" value="&lt;b&gt;&lt;font style=&quot;font-size: 27px;&quot;&gt;3&lt;/font&gt;&lt;/b&gt;" style="ellipse;whiteSpace=wrap;html=1;" vertex="1" parent="1">
          <mxGeometry x="145" y="264" width="30" height="30" as="geometry" />
        </mxCell>
        <mxCell id="9PCEL7k4kP_OmGIp3oCn-20" value="token" style="text;html=1;align=center;verticalAlign=middle;whiteSpace=wrap;rounded=0;" vertex="1" parent="1">
          <mxGeometry x="135" y="244" width="90" height="20" as="geometry" />
        </mxCell>
        <mxCell id="9PCEL7k4kP_OmGIp3oCn-21" value="&lt;b&gt;&lt;font style=&quot;font-size: 27px;&quot;&gt;0&lt;/font&gt;&lt;/b&gt;" style="ellipse;whiteSpace=wrap;html=1;" vertex="1" parent="1">
          <mxGeometry x="730" y="520" width="30" height="30" as="geometry" />
        </mxCell>
        <mxCell id="9PCEL7k4kP_OmGIp3oCn-22" value="load config" style="text;html=1;align=center;verticalAlign=middle;whiteSpace=wrap;rounded=0;" vertex="1" parent="1">
          <mxGeometry x="685" y="552" width="90" height="20" as="geometry" />
        </mxCell>
        <mxCell id="9PCEL7k4kP_OmGIp3oCn-24" value="&lt;span style=&quot;font-size: 23px;&quot;&gt;PRODUCT-SERVICE&lt;/span&gt;" style="text;html=1;align=center;verticalAlign=middle;whiteSpace=wrap;rounded=0;" vertex="1" parent="1">
          <mxGeometry x="810" y="65" width="230" height="25" as="geometry" />
        </mxCell>
        <mxCell id="9PCEL7k4kP_OmGIp3oCn-28" style="edgeStyle=orthogonalEdgeStyle;rounded=0;orthogonalLoop=1;jettySize=auto;html=1;entryX=0;entryY=0.25;entryDx=0;entryDy=0;" edge="1" parent="1" source="_nBaNx2a2KP-oIEA9KMs-1" target="9PCEL7k4kP_OmGIp3oCn-2">
          <mxGeometry relative="1" as="geometry" />
        </mxCell>
        <mxCell id="9PCEL7k4kP_OmGIp3oCn-29" value="&lt;b&gt;&lt;font style=&quot;font-size: 27px;&quot;&gt;3+&lt;/font&gt;&lt;/b&gt;" style="ellipse;whiteSpace=wrap;html=1;" vertex="1" parent="1">
          <mxGeometry x="590" y="20" width="40" height="30" as="geometry" />
        </mxCell>
      </root>
    </mxGraphModel>
  </diagram>
</mxfile>
